<svg width="967" height="321" viewBox="0 0 967 321" fill="none" xmlns="http://www.w3.org/2000/svg">
<rect width="967" height="321" fill="white"/>
<path d="M205.961 124.273V197H223.078V152.078H223.681L241.153 196.538H252.091L269.562 152.327H270.166V197H287.282V124.273H265.514L247.048 169.301H246.196L227.73 124.273H205.961ZM298.246 197H315.612V142.455H298.246V197ZM306.947 136.098C311.883 136.098 315.86 132.369 315.86 127.788C315.86 123.207 311.883 119.514 306.947 119.514C302.046 119.514 298.033 123.207 298.033 127.788C298.033 132.369 302.046 136.098 306.947 136.098ZM352.126 198.03C367.467 198.03 376.984 189.116 377.446 175.622H361.217C360.578 181.411 357.098 184.571 352.339 184.571C346.231 184.571 342.254 179.422 342.254 169.727C342.254 160.104 346.267 154.955 352.339 154.955C357.311 154.955 360.542 158.328 361.217 163.903H377.446C377.055 150.48 367.254 141.744 352.091 141.744C334.939 141.744 324.569 153.179 324.569 169.905C324.569 186.56 334.868 198.03 352.126 198.03ZM386.332 197H403.697V167.384C403.697 160.885 408.314 156.517 414.528 156.517C416.588 156.517 419.678 156.872 421.347 157.44V142.348C419.891 141.957 418.08 141.709 416.482 141.709C410.516 141.709 405.757 145.189 403.768 152.398H403.2V142.455H386.332V197ZM451.052 198.03C468.204 198.03 478.609 186.702 478.609 169.905C478.609 153.072 468.204 141.744 451.052 141.744C433.9 141.744 423.495 153.072 423.495 169.905C423.495 186.702 433.9 198.03 451.052 198.03ZM451.158 184.926C444.731 184.926 441.18 178.818 441.18 169.798C441.18 160.743 444.731 154.599 451.158 154.599C457.373 154.599 460.924 160.743 460.924 169.798C460.924 178.818 457.373 184.926 451.158 184.926Z" fill="#28EE77"/>
<path d="M487.504 197H505.082V174.415H517.014C533.669 174.415 544.074 164.543 544.074 149.45C544.074 134.5 533.882 124.273 517.547 124.273H487.504V197ZM505.082 160.565V138.442H513.747C521.631 138.442 525.857 142.703 525.857 149.45C525.857 156.162 521.631 160.565 513.747 160.565H505.082ZM566.162 197.923C573.761 197.923 579.017 194.976 582 189.401H582.426V197H598.761V159.926C598.761 148.385 588.499 141.744 574.614 141.744C559.947 141.744 551.638 149.131 550.253 159.074L566.268 159.642C567.014 156.162 569.891 154.031 574.472 154.031C578.733 154.031 581.432 156.091 581.432 159.749V159.926C581.432 163.264 577.81 163.974 568.506 164.791C557.462 165.714 548.229 169.798 548.229 181.872C548.229 192.668 555.722 197.923 566.162 197.923ZM571.524 186.56C567.511 186.56 564.67 184.642 564.67 181.02C564.67 177.504 567.44 175.374 572.376 174.628C575.608 174.166 579.585 173.456 581.538 172.426V177.611C581.538 182.938 577.064 186.56 571.524 186.56ZM640.168 142.455H630.331V129.386H612.966V142.455H605.757V155.239H612.966V181.766C612.859 192.81 620.033 198.349 632.284 197.781C636.474 197.568 639.493 196.716 641.162 196.219L638.534 183.683C637.788 183.861 636.048 184.216 634.734 184.216C631.929 184.216 630.331 183.08 630.331 179.848V155.239H640.168V142.455ZM673.903 198.03C689.244 198.03 698.761 189.116 699.223 175.622H682.994C682.355 181.411 678.875 184.571 674.116 184.571C668.009 184.571 664.031 179.422 664.031 169.727C664.031 160.104 668.044 154.955 674.116 154.955C679.088 154.955 682.32 158.328 682.994 163.903H699.223C698.832 150.48 689.031 141.744 673.868 141.744C656.716 141.744 646.347 153.179 646.347 169.905C646.347 186.56 656.645 198.03 673.903 198.03ZM725.475 165.892C725.51 159.678 729.203 155.984 734.708 155.984C740.283 155.984 743.515 159.571 743.479 165.643V197H760.844V162.234C760.88 149.876 753.351 141.744 741.881 141.744C733.713 141.744 727.961 145.757 725.51 152.469H724.907V124.273H708.11V197H725.475V165.892Z" fill="black"/>
</svg>
